<svg version="1.2" xmlns="http://www.w3.org/2000/svg" viewBox="0 0 1280 720" width="1280" height="720">
	<title>New Project</title>
	<style>
		.s0 { fill: #8b0000 } 
	</style>
	<path id="t" fill-rule="evenodd" class="s0" d="m186.19 103.25v-4.44q7.61 0 32.98 15.65l-2.96 4.44 4.44 4.22v1.69l-2.96 2.75q-5.08-8.66-12.69-8.66l16.91 17.12-2.74 2.96-15.86-17.34-8.46-1.26 2.96 4.43h-2.96q-8.66-5.91-8.66-21.56zm64.47 28.54v-2.96h1.27l20.09 15.64h2.74l-5.49-7.18h2.75q8.87 3.59 12.89 8.88l4.23-1.7 1.48 1.7v1.26q-4.23 5.29-4.23 9.94l8.46-8.46 1.26 1.27h1.7l-11.42 17.34v2.75l15.64-18.61h1.27v4.44q-15.64 20.51-15.64 27.06l-4.02-1.27-14.37 1.27q0 2.75 4.23 2.75l8.45 1.48v1.69l1.69-1.69 6.98 1.69h2.75l5.92-1.69 4.01 1.69 5.92-3.17 1.27 1.48v1.69l-1.27 1.27h1.27q0-5.5 41.43-10.15v2.96q0 2.75-4.01 2.75v1.48l2.75 2.96h24.1q35.72 0 47.35-18.6h2.75v14.16l1.69-1.27h9.72q4.86 0 5.92 14.38-7.82 107.17-21.56 107.17v1.27l5.92 12.9-1.69 1.48v1.27l2.96 7.18-1.27 1.7h-1.69l-7.19-7.19h-2.75v2.75q14.38 7.18 14.38 14.37l-1.48 1.27h-1.27l-21.56-18.39-1.7 1.27v1.48q15.44 10.35 27.27 24.1v1.69h-2.74q-31.5-24.74-31.5-28.54h-1.48l-4.02 2.75-3.17-2.75q3.59 0 7.19-11.63l-14.17 15.64-2.74-2.74 12.89-17.13v-2.75h-3.17q-12.89 25.8-24.1 25.8h-4.44l8.46 9.93-2.75 2.75-11.42-9.94v2.75l15.86 15.86-2.96 2.75-14.38-12.9v2.96l21.57 21.56-1.48 1.27v5.92q8.24-11.63 11.62-11.63l1.27 1.27-11.41 17.34v2.74l17.33-21.35h2.75v2.75q-18.81 25.58-18.81 30.23 2.53 0 25.79-34.46l-1.27-4.23 1.27-1.47h1.48l4.44 4.43h2.74v-2.96q-6.97 0-11.41-11.41l1.48-1.48h1.27l15.85 14.16h4.23l-24.31-24.1 1.48-1.48h1.48l32.76 27.27q0 8.88 2.96 12.69l-1.48 5.71 2.75 5.7-1.27 7.19v7.19h-1.48l-4.22-2.75h-4.44l10.14 9.94v4.44h-1.48l-4.22-1.7v1.7l5.7 6.97v2.75h-1.48l-12.89-9.72-2.96 2.74 4.44 4.23v1.48h-2.75q-5.5-5.07-14.37-7.19v-1.26q0-2.54 9.93-5.92l2.75-2.96 4.44 2.96h4.44v-1.27q-4.44 0-4.44-7.19l-15.64 2.75-3.18-4.44v-11.2h-1.26l-12.9 11.2h-1.48l14.38-21.35-2.75-2.75q-18.61 32.98-28.54 32.98l1.27 1.27v4.22h-2.75l-5.71-4.22-18.6 2.75-1.48-1.27v9.93l35.72-4.23v1.48l-4.43 5.71 3.17 2.75v2.96h-1.48l-8.88-5.71h-2.75l14.37 14.17v2.74h-1.26l-20.09-15.64h-4.44v1.48q3.6 0 27.27 22.83v2.96h-1.48q-30.44-25.79-35.72-25.79h-1.27l-5.92 42.91v1.27h1.48q0.21-5.28 5.71-8.45h2.75v1.26q-11.21 17.76-11.21 21.57v1.69h1.27l14.38-26-1.48-5.71h2.74l5.92 4.44h2.75q-12.68-11.63-12.68-15.65h2.75l16.91 14.17h4.44v-1.48q-25.79-17.97-25.79-24.31h1.69l35.72 27.27 2.75-2.96h2.75v1.48l-5.5 8.67v4.01q13.11-16.91 15.65-16.91l1.27 1.27q-15.65 22.83-15.65 27.27 21.57-30.02 27.27-30.02h2.75q0-2.96-4.44-2.96l-1.27-1.48v-2.75l2.96-2.96q0 2.75 9.94 8.88l11.41-1.69 1.48 1.69v34.04q0 2.96-5.7 2.96l5.7 7.18v2.75h-1.48l-11.41-8.45h-2.75l15.64 15.64v2.96h-1.48q-16.48-11.2-19.87-18.6h-3.17v-1.48l3.17-4.44v-4.02l-10.36 11.21h-2.74v-1.27q11.62-15.44 11.62-20.09v-1.48l-21.35 25.79-1.69-1.47 21.35-31.5v-4.23h-1.27q-22.83 31.71-22.83 37.2v4.23h-1.48l-8.45-2.75q11.2 10.36 11.2 14.17l-1.27 1.48h-1.48q-13.1-14.38-18.6-14.38h-1.48v1.48q24.31 16.7 24.31 22.83l-1.48 1.7h-1.27q-24.31-23.47-32.98-27.28l-4.22 4.02-1.27-1.27h-1.69q7.18-9.72 7.18-14.37-12.68 17.33-17.12 17.33v-2.96q15.64-20.93 15.64-25.58-18.39 17.76-24.1 44.19l-1.48 11.41 2.75 2.96v2.75h-1.27l-4.43-1.48-1.27 1.48v1.27l9.72 4.44-1.27 1.48v2.96h2.96q0-4.44 5.5-7.19h3.17v1.48l-3.17 4.02h1.69l8.46-7.19h2.74v1.69l-1.26 1.48v1.27h2.74l8.67-8.46-4.23-4.44 2.75-2.75q3.6 7.19 11.42 7.19l-15.65-15.64 2.75-3.17 20.08 17.33h2.75l-26.84-25.79 2.74-2.75q31.29 28.54 35.73 28.54h1.27v1.48l-2.75 4.02h2.75l10.15-8.46 1.48 1.48v1.48l-3.18 2.75v1.48h1.7l9.93-8.46 1.48 1.27-4.23 7.19 4.23 1.27 4.23-11.21h4.23l-7.19-8.45v-3.17h1.69q2.96 0.63 15.64 13.1v32.98q0 2.75-4.44 2.75l1.48 1.27v2.96h-4.22q-3.6 0-4.44-5.71l-4.02 2.75h-2.96v-1.27l5.71-8.67v-4.44l-12.9 15.86h-2.74v-1.48l14.16-21.35v-4.23q-19.24 26.42-25.79 31.29l-7.19-1.27h-1.27v2.75l5.71 1.26 24.31-1.26q44.18 0 60.04 20.08v4.44q0 15.64-25.79 26.85l-1.27-1.48v-1.27q22.62-13.95 22.62-25.79 0-13.74-52.64-18.39l-45.87 1.26-4.23 2.75-7.19-1.27h-8.67q-12.05 0-18.39-2.74 0 6.97-3.17 6.97l-4.02-4.23h-2.95l5.7 6.98v1.48h-4.23q-7.61-7.19-12.89-7.19l5.92 7.19v1.69h-3.17q-6.98-6.98-16.91-8.88v-1.27l2.74-2.74v-4.44q-8.24 11.41-11.41 11.41l-1.48-1.27 11.41-17.33v-1.27q-2.74 0-18.6 21.35h-2.75v-2.75l8.46-12.89h-4.02l-11.62 18.39q3.38 0 4.43 7.19h-2.95q-7.62-7.19-13.11-7.19l10.36 10.15-1.48 1.48h-2.96q-3.6-0.85-7.19-9.94l-1.48 1.27h-1.27l-5.71-1.27 1.27 1.27v2.75h-1.27l-7.18-7.19-1.48 7.19q14.37 11.84 47.14 17.33 48.2-21.35 58.77-21.35 45.24 9.94 64.26 21.35v1.48q0 4.02-38.68 6.98l-84.35-4.23q-40.38 12.89-62.79 12.89-20.08-1.69-20.08-18.81l1.48-5.5v-2.96l-7.19-4.01h-4.44l7.19 6.97-2.75 2.75-9.93-8.45h-4.44l1.48 1.48v4.22q-5.71 0-5.71-21.35l-15.64 18.39v-2.74q14.16-22.83 14.16-27.27v-1.27h-2.75q0-8.04 8.46-12.9l2.75 2.75h3.17l-14.38-14.37v-2.75h1.48l20.08 15.64h4.02l-26.85-24.1v-2.96h1.27l34.46 27.06 1.27-1.27h1.48l1.27 1.27v1.48q-4.02 1.69-4.02 8.67v1.48h1.27q0-3.38 9.93-14.38l1.27 1.48h1.69l-14.16 21.35 1.27 1.48h1.48q20.08-29.17 20.08-54.11 0-8.88-8.67-8.88l-2.96 2.96h-2.74v-4.44h-1.48l-6.98 5.92h-3.17v-1.48l4.44-7.19-1.27-1.27h-1.69l-4.23 7.19v8.45h-1.27l-8.88-2.96 11.63 11.42v2.75h-1.48l-17.33-12.47h-2.75l22.83 21.35v2.74h-1.27l-31.29-24.09-1.69-1.7h-1.48l-4.01 4.44-2.96-2.74q2.11 0 6.97-10.36l-1.27-14.17-8.45 8.46h-1.48v-4.02l11.2-18.81 7.19 1.48-4.02-5.5 2.75-3.17q7.4 7.19 12.9 7.19l-3.17-4.02v-1.69h1.69l7.18 2.96v-1.27l-1.69-8.88v-22.83h-1.27l-12.89 3.17-1.48-1.69h-1.27l-8.67 1.69h-2.96l-2.74-3.17q2.53-2.75 31.28-5.71v-9.93q-14.58 4.44-29.8 4.44v-4.44l1.26-28.54q6.14 0 11.63-5.71l-1.48-1.48v-2.75h1.48q2.75 2.75 11.42 2.75 4.22 14.38 4.22 34.46h1.27l4.44-51.37-1.27-14.38v-12.89h2.75v8.46h2.96l-1.69 14.37v9.94l4.44 18.6q-4.44-0.85-4.44-9.94h-1.27l-1.48 24.31v6.98h1.48l5.71-2.75v1.48l-8.46 9.94v12.89q0 24.74 2.75 38.48l1.27-1.48h4.44v1.48l-2.75 8.66q11.21-14.16 14.17-14.16l1.48 1.27v1.48l-11.63 15.64v2.96q16.49-23.04 21.56-23.04h2.96v-1.48l-4.44-5.71 2.75-2.75q5.92 8.46 11.63 8.46v-1.27q-15.65-13.1-15.65-17.12l1.27-1.48h1.48l14.17 12.89h1.47v-1.48l-18.39-16.91v-4.44h1.27l18.82 14.17v-4.23l-18.82-14.38-1.27 1.69-1.48-1.69v-4.22l8.67-1.27-1.48-1.69v-1.27l1.48-1.48h1.27l1.48 4.44q15.64-2.12 15.64-5.71v-5.92l-27.06 4.44q-3.17 0-5.7-38.69l1.26-1.48h1.48l5.71 1.48q0-5.7 2.75-5.7 1.69 4.22 8.88 4.22l4.02-4.22 3.17 2.96h1.26l7.19-1.48 1.27 1.48v1.26q-2.75 0-5.71 9.94h2.96q5.5-6.55 9.94-49.89l-1.27 1.48h-1.48l-1.69-1.48v-1.48q4.44-1.27 4.44-8.46l-9.94 11.42h-2.96v-2.96q14.38-19.03 14.38-24.1l-21.56 29.81 3.17 4.44v1.48l-3.17 2.74-6.98-7.18h-4.23l15.64 15.64-2.96 2.96-15.64-17.33-7.19-1.27v1.27l1.27 4.44h-1.27q-8.45 0-9.93-28.54l-14.17 17.12-4.44 1.48v-1.48l2.96-8.67q-7.18 4.44-12.89 21.56h-4.44l1.48 1.27v1.69l-1.48 1.27h-2.75l-7.19-5.7v-9.94q0-25.79 5.92-25.79l-4.44-5.71v-2.75h1.27q9.52 7.19 14.38 7.19v2.75l-4.23 8.45h1.48l8.46-9.93-2.75-8.46h2.75q0 4.02 4.43 7.19l-1.69 6.98 10.15-10.15 1.48 1.69h1.27q-9.73 14.38-9.73 18.39 12.05-11.84 14.17-22.83h1.48l1.27 1.48 1.48-1.48v-1.27q-4.23 0-7.19-5.71v-2.74h2.96l12.89 9.72 1.48-1.27v-1.48q-10.78-6.55-18.81-15.85v-2.75h1.48l24.52 18.6h2.75q-4.86-6.76-24.31-21.35l-12.9 1.27q-4.86 0-8.45-15.64h-1.48q0 6.13-8.67 8.66l1.48 1.27v4.44q-2.96 0-2.96-4.44h-1.27v4.44h-1.48l-4.44-4.44 1.48-12.89-7.19 5.7-1.26-1.26v-1.48q4.22-5.71 4.22-12.9l1.48 1.48h2.75l14.17-20.08v-31.29q0-14.37 7.18-22.83l-1.27-10.15h-1.47q-15.65 3.17-15.65 8.46l-1.27-1.48h-1.69q-18.39 8.03-18.39 21.56v11.42l8.46-8.46v1.48l-8.46 11.21 8.46 25.79q-2.75 0-9.94-24.1l-4.44 2.74-4.23-4.43v-4.23q0-8.46 17.34-38.69l1.27-1.27h2.74l-8.45 12.9h1.27q12.47-8.67 16.06-8.67v-2.96l-1.69-1.27v-1.48h1.69l4.02 2.75 14.37-5.5-2.74-17.33q2.74 0 2.74-4.02l2.96 2.75q4.23 0 4.23-5.92h1.27l4.44 3.17h4.44l2.75-3.17q8.45 1.27 8.45 3.17l1.27-1.69h4.44v1.69l-4.44 7.19v4.02l13.11-14.38h1.27v3.17l-12.69 18.4 1.48 11.41h2.75l4.44-2.96v4.44l22.62 1.27h5.92v-1.27q-11.63 0-11.63-2.75 4.44-5.49 4.44-10.14l-8.45 8.45-3.17-2.75 10.14-14.16v-2.75q-8.67 6.13-8.67 11.21h-2.74v-5.71q9.93-11.63 9.93-17.13l-1.48-8.45h1.48q5.92 5.71 11.42 5.71zm-60.04 0v-2.96h1.48v2.96zm14.38 2.74v-1.26q7.18 0 18.39 12.89v1.27l-2.75 2.75zm42.91 14.37l2.75 2.75-15.64 20.08h-1.48v-4.22q9.72-16.07 14.37-18.61zm44.19 30.02l17.12-24.31 2.96 2.75q-15.22 22.83-18.82 22.83zm25.58-2.75l-2.75-17.33q8.46 0 30.02 14.16h-1.48l1.48 1.69v1.48l-2.74 2.75-5.92-4.23zm-11.21-5.92h2.75v4.44q0 1.9-5.92 4.23l-1.27-1.48v-1.27q2.96 0 2.96-4.44zm49.89 12.9l4.23-4.23h1.48v2.96l-2.96 2.75h-2.75zm8.46 13.1h-51.37l2.75 9.73q-6.77 30.65-25.58 70.18l-4.23 2.75-1.48-1.48q4.23-7.4 4.23-14.16h1.48l1.48 1.27h1.27q12.26-27.91 20.08-58.56l-4.23-11.42h-18.6q-18.82 0-94.5 55.81v5.71h1.69q26.64-12.9 41.23-12.9h7.18q25.79 5.71 25.79 35.73v18.6q0 47.78-24.1 200.2 0 32.55 21.36 32.55 14.79 0 30.01-19.66 12.9-21.56 25.58-150.09l14.17-94.49h11.62l51.37 12.89q10.15 0 18.61-95.76h-1.27q-13.74 13.1-54.54 13.1zm-171.45 19.66v14.38l2.75 2.96q27.27-40.59 27.27-44.18l-1.48-1.69h-11.41q-17.13 0-17.13 28.53zm145.66-28.53h-1.27v2.96h4.44zm-58.56 5.7l-54.12-4.01q0 4.65-31.5 54.11v4.44q73.78-53.06 85.62-53.06zm-92.8 0l1.27-4.01h3.17v5.49h-1.48l-1.69-1.48zm-18.4 8.67l2.75-2.75v2.75l-2.75 2.96zm-16.06 5.71h-1.27l-2.75 10.14v5.5h1.27l2.75-2.75zm13.1 1.27v-2.75h1.27v2.75zm10.15 41.65l2.75-2.75 1.27 1.27v1.48l-4.02 4.22zm-11.63 0q3.6 0 5.71 11.42-3.59 0-5.71-11.42zm125.79 10.15v-3.17h2.74v3.17zm-105.7 1.27h-1.48l-5.7 8.67v1.27h1.48zm7.18 0l-11.62 15.64v4.44h1.48l10.14-15.86zm42.92 18.4l4.01 4.44v2.74h-1.26q-5.92-1.9-8.67-7.18l-4.44 1.69 16.07 14.37v2.75h-2.96l-17.13-14.37h-2.96v1.47q25.79 20.09 25.79 28.54h1.27q0.42-5.7 5.92-5.7l1.27 1.48q-7.19 9.72-7.19 14.37l12.9-15.85h4.44v1.48q-15.86 20.71-15.86 25.58 2.12 0 21.35-28.54v-15.65q-2.75-15.64-14.16-15.64h-7.19q-10.15 0-11.2 4.02zm199.98 7.18h7.19l2.75 2.96v2.75l-1.48 1.48v1.69q-9.3-3.59-9.94-7.19zm-261.71 7.19l3.17-2.75 4.02 5.71v2.75h-1.27q-5.92-2.11-5.92-4.02zm11.63-1.48q3.8 0 5.7 14.38-3.17 0-5.7-14.38zm181.38 5.92l-2.75 2.75v2.96h2.75l1.26-5.71zm-1.47 16.91q8.87-6.55 9.93-14.16h-1.27q-8.66 6.77-8.66 14.16zm18.81-9.72l-2.96-2.75q-14.38 18.82-14.38 24.1v1.27zm-210.34 0v-2.75h3.17l5.5 5.5v2.96h-1.48q-6.34-2.96-7.19-5.71zm21.57 19.87h-1.48l-8.46 13.11v2.75q5.28-3.39 9.94-11.63zm8.45 27.27v-2.96h2.96v2.96zm5.71 0v-2.96h3.17zm141.64 0v2.75l11.41 9.93h2.75q-6.98-9.72-14.16-12.68zm-180.11 11.2v-2.74h1.48l4.43 4.22v1.7h-3.17zm180.12-1.27h-1.48v1.27l2.74 3.17h3.17zm-117.11 2.74v-2.74h1.48l15.64 12.89v4.23h-1.48q-10.78-6.77-15.64-14.38zm-51.58 5.71h1.48l7.19 7.19v1.48h-2.96q-5.71-2.75-5.71-8.67zm-7.19 7.19v-2.75h1.69l8.46 7.19v1.27h-2.96zm82.87 18.6h-1.27q0 4.23-2.96 4.23l1.48 8.88h1.48l1.27-11.63zm-45.45 13.11l-1.7-7.19q4.44 1.27 4.44 8.46l-5.91 4.22v-1.48zm181.38 1.27l6.97-4.44 1.48 1.48v1.69l-5.71 4.02zm-9.93 1.48l4.01-2.75h3.18v1.27l-4.44 4.23zm-201.68 6.97h-1.48v5.92h4.44v-3.17zm34.25 0h2.96v1.48l-2.96 2.96-1.27-1.69v-1.27zm194.27 1.48v-1.48h1.7q22.83 14.59 22.83 21.57h-1.48zm-159.82 12.89h-1.48v2.75h1.48zm-11.63 1.27l-1.27 1.48v1.69l11.42 8.45 1.48-4.44q-7.4-7.18-11.63-7.18zm-8.45 40.16h-1.48l-15.65 24.31v1.27h1.48l15.65-21.35zm1.27 11.42h-1.27l-9.94 15.85v1.27h2.75q8.46-7.4 8.46-14.16zm-24.1 10.14h-2.75v4.02l2.75-2.75zm208.65 1.27v-2.75h2.96l15.64 14.38v2.74h-1.48q-12.47-7.39-17.12-14.37zm-182.86 1.48h-1.69l-2.75 5.71h4.44zm8.45 10.14h-2.96v2.75l5.71 2.75v-2.75zm2.75 12.69l-6.98-5.5v2.75l6.98 5.71zm1.48 10.14l-8.46-5.92-4.23 18.82h2.75v2.75q-24.94 34.88-25.79 54.33 0 12.68 15.86 12.68h5.49q50.1-6.55 50.1-11.2-24.52 0-44.18-20.09v-4.44q4.23 0 4.23-7.18l-1.27-14.17-20.08 19.87h-1.48q19.87-27.05 21.56-34.24h4.02v-2.75q-5.71 0-6.98-8.46h1.27l7.19 4.02zm154.32 0l-4.23 4.02h1.48l5.5-4.02zm-57.08 25.58h1.48q15.64-15.22 15.64-21.56h-1.48q-12.05 13.74-15.64 21.56zm64.27-21.56l-14.17 17.33 1.27 4.23h1.48l12.9-19.87v-1.69zm-74.21 25.79l17.13-22.83v-1.27h-1.48q-15.65 15.64-15.65 24.1zm-1.69-11.42q2.54-0.42 8.88-11.41h-2.96q-3.59 0-5.92 11.41zm64.48-8.67h-2.75v3.18zm-35.72 5.91l-2.75 2.75h1.27l2.95-2.75zm-191.31 7.19h1.27v2.75l-11.42 17.12h-1.48v-1.26q0-6.98 11.63-18.61zm176.94 11.42h5.71l4.44-8.67h-1.27q-5.29 1.06-8.88 8.67zm-187.09-7.19v-1.48h2.96v1.48zm202.94 0l-5.7 7.19h7.18zm-84.34 2.75h-4.23v4.44zm101.47 0h-2.75v2.74h5.5zm-202.73 0v1.48q-7.83 13.96-10.15 14.17v-2.75q7.4-12.47 10.15-12.9zm191.1 1.48h-1.27v2.96h4.44zm-62.57 17.34l2.75-3.17 1.48 1.48v4.44h-1.48zm-7.19 21.35v1.48l57.29 2.74h16.91l34.46-2.74q-6.98-6.77-58.56-20.09-19.45 4.44-50.1 18.61z"/>
	<path id="support" fill-rule="evenodd" class="s0" d="m537.37 537.98q-10.77 0-19.85-5.54-8.99-5.53-14.42-14.71-5.33-9.28-5.33-20.34v-9.29q0-1.08 0.98-1.08h22.72q0.79 0 0.79 1.08v9.29q0 6.61 4.44 11.45 4.44 4.74 10.67 4.74 6.32 0 10.76-4.84 4.44-4.93 4.44-11.35 0-7.41-9.67-12.94-1.58-0.99-4.15-2.37-2.47-1.48-5.93-3.36-3.45-1.87-6.71-3.65-3.26-1.88-6.32-3.56-11.06-6.52-16.49-16.29-5.34-9.88-5.34-22.12 0-11.26 5.53-20.35 5.53-8.98 14.42-14.22 8.99-5.33 19.46-5.33 10.76 0 19.75 5.33 8.98 5.43 14.32 14.42 5.43 8.99 5.43 20.15v16.59q0 0.79-0.79 0.79h-22.72q-0.79 0-0.79-0.79l-0.19-16.59q0-7.11-4.45-11.56-4.44-4.44-10.56-4.44-6.23 0-10.67 4.74-4.44 4.74-4.44 11.26 0 6.61 2.76 11.06 2.87 4.44 10.37 8.49 0.79 0.4 3.66 1.98 2.86 1.58 6.32 3.55 3.55 1.88 6.41 3.46 2.87 1.48 3.46 1.77 10.07 5.63 15.9 13.83 5.93 8.2 5.93 20.15 0 11.55-5.34 20.74-5.43 9.18-14.42 14.51-8.98 5.34-19.94 5.34zm90.86 0q-10.67 0-19.75-5.54-9.09-5.53-14.52-14.81-5.33-9.38-5.33-20.44l0.39-101.13q0-0.79 0.79-0.79h22.72q0.79 0 0.79 0.79v101.13q0 6.81 4.34 11.65 4.35 4.74 10.57 4.74 6.52 0 10.86-4.74 4.35-4.84 4.35-11.65v-101.13q0-0.79 0.79-0.79h22.71q0.79 0 0.79 0.79l0.4 101.13q0 11.16-5.34 20.54-5.43 9.28-14.41 14.81-8.99 5.44-20.15 5.44zm79.47-1.98h-22.71q-0.99 0-0.99-0.99l0.39-138.95q0-0.79 0.79-0.79h38.91q18.57 0 29.33 11.36 10.87 11.26 10.87 30.71 0 14.22-5.63 24.79-5.73 10.47-14.81 16.2-9.09 5.72-19.76 5.72h-15.4v50.96q0 0.99-0.99 0.99zm16.39-116.73l-15.4 0.2v40.09h15.4q6.42 0 11.16-6.12 4.74-6.22 4.74-16.1 0-7.9-4.24-12.93-4.25-5.14-11.66-5.14zm77.61 116.73h-22.71q-0.99 0-0.99-0.99l0.39-138.95q0-0.79 0.79-0.79h38.91q18.57 0 29.33 11.36 10.87 11.26 10.87 30.71 0 14.22-5.63 24.79-5.73 10.47-14.81 16.2-9.09 5.72-19.76 5.72h-15.4v50.96q0 0.99-0.99 0.99zm16.39-116.73l-15.4 0.2v40.09h15.4q6.42 0 11.16-6.12 4.74-6.22 4.74-16.1 0-7.9-4.24-12.93-4.25-5.14-11.66-5.14zm91.34 118.71q-10.77 0-19.85-5.54-8.99-5.53-14.52-14.71-5.43-9.28-5.43-20.34l0.2-64.1q0-11.25 5.43-20.24 5.33-9.09 14.42-14.52 9.08-5.53 19.75-5.53 11.06 0 19.85 5.43 8.89 5.43 14.22 14.62 5.43 9.08 5.43 20.24l0.2 64.1q0 11.06-5.34 20.24-5.43 9.28-14.41 14.81-8.99 5.54-19.95 5.54zm0-24.4q6.12 0 10.66-4.94 4.55-5.03 4.55-11.25l-0.2-64.1q0-6.71-4.25-11.35-4.24-4.64-10.76-4.64-6.22 0-10.67 4.54-4.44 4.54-4.44 11.45v64.1q0 6.61 4.44 11.45 4.45 4.74 10.67 4.74zm79.27 22.42h-22.91q-0.79 0-0.79-0.99l0.39-138.95q0-0.79 0.79-0.79h40.89q10.96 0 20.15 5.34 9.18 5.33 14.61 14.32 5.53 8.98 5.53 20.34 0 7.41-2.27 13.43-2.27 6.02-5.33 10.17-2.97 4.15-5.43 6.12 10.96 12.15 10.96 28.55l0.2 41.47q0 0.99-0.99 0.99h-22.91q-0.79 0-0.79-0.59v-41.87q0-7.31-5.14-12.65-5.13-5.33-12.64-5.33h-13.33l-0.2 59.45q0 0.99-0.79 0.99zm18.37-116.53h-17.38v31.8h17.38q6.22 0 11.06-4.64 4.94-4.65 4.94-11.36 0-6.42-4.74-11.06-4.74-4.74-11.26-4.74zm98.09 116.53h-22.82q-0.89 0-0.89-0.99v-115.34h-26.26q-0.99 0-0.99-0.99l0.2-22.62q0-0.79 0.79-0.79h76.83q1.08 0 1.08 0.79v22.62q0 0.99-0.79 0.99h-26.56l0.2 115.34q0 0.99-0.79 0.99z"/>
</svg>